<svg width="420" height="400" viewBox="0 0 420 400" fill="none" xmlns="http://www.w3.org/2000/svg">
<path d="M210 0L391.865 100V300L210 400L28.1347 300V100L210 0Z" fill="#FF0000"/>
<path d="M210 10L383.205 105V295L210 390L36.7949 295V105L210 10Z" fill="white"/>
<path d="M211 20L375.545 110V290L211 380L46.4552 290V110L211 20Z" fill="black"/>
<path d="M210 40L357.224 120V280L210 360L62.7757 280V120L210 40Z" fill="#EEEEEE"/>
<line x1="357.21" y1="119.454" x2="210.21" y2="187.454" stroke="black"/>
<line x1="63.2088" y1="119.546" x2="211.209" y2="187.546" stroke="black"/>
<line x1="210.5" y1="360" x2="210.494" y2="187" stroke="black"/>
<path d="M142.156 218L133.948 198.704L125.308 218H118.54L130.78 191.936L119.62 167.6H126.46L134.02 184.952L141.796 167.6H148.492L137.116 191.864L149.212 218H142.156ZM178.035 218C177.411 218 176.715 217.808 175.947 217.424C175.227 217.04 174.603 216.512 174.075 215.84C172.971 217.28 171.507 218 169.683 218H164.715C161.067 218 158.403 217.28 156.723 215.84C155.091 214.352 154.275 211.832 154.275 208.28V206.84C154.275 199.4 157.779 195.68 164.787 195.68H172.275V192.08C172.275 190.592 171.819 189.44 170.907 188.624C169.995 187.808 168.651 187.4 166.875 187.4H157.155V182H166.155C170.331 182 173.403 182.912 175.371 184.736C177.387 186.56 178.395 189.488 178.395 193.52V210.8C178.395 211.52 178.659 212.072 179.187 212.456C179.763 212.792 180.699 212.96 181.995 212.96V218H178.035ZM168.963 212.6C170.403 212.6 171.315 212.264 171.699 211.592C172.083 210.92 172.275 210.056 172.275 209V201.08H164.715C163.467 201.08 162.435 201.488 161.619 202.304C160.803 203.12 160.395 204.152 160.395 205.4V209C160.395 210.248 160.683 211.16 161.259 211.736C161.835 212.312 162.747 212.6 163.995 212.6H168.963ZM190.615 182H196.375V183.728C197.863 182.576 199.783 182 202.135 182H204.007C207.895 182 210.775 182.912 212.647 184.736C214.567 186.56 215.527 189.488 215.527 193.52V218H209.407V192.08C209.407 190.64 208.975 189.512 208.111 188.696C207.295 187.832 206.167 187.4 204.727 187.4H201.415C199.831 187.4 198.655 187.832 197.887 188.696C197.119 189.512 196.735 190.4 196.735 191.36V218H190.615V182ZM245.478 216.344C243.894 217.448 241.974 218 239.718 218H238.206C233.982 218 230.886 217.112 228.918 215.336C226.95 213.512 225.966 210.56 225.966 206.48V193.52C225.966 189.488 226.95 186.56 228.918 184.736C230.934 182.912 234.03 182 238.206 182H245.118V167.6H251.238V218H245.478V216.344ZM240.438 212.6C242.022 212.6 243.198 212.192 243.966 211.376C244.734 210.512 245.118 209.6 245.118 208.64V187.4H237.486C235.71 187.4 234.366 187.808 233.454 188.624C232.542 189.44 232.086 190.592 232.086 192.08V207.92C232.086 209.408 232.542 210.56 233.454 211.376C234.366 212.192 235.71 212.6 237.486 212.6H240.438ZM262.756 182H268.516V183.944C270.1 182.648 272.02 182 274.276 182H279.532V187.76H273.556C271.972 187.76 270.796 188.288 270.028 189.344C269.26 190.4 268.876 191.432 268.876 192.44V218H262.756V182ZM296.453 173C295.685 173 295.061 173.216 294.581 173.648C294.149 174.032 293.933 174.536 293.933 175.16V182H302.645V187.4H293.933V218H287.813V187.4H283.133V182H287.813V175.52C287.813 173.072 288.509 171.152 289.901 169.76C291.293 168.32 293.093 167.6 295.301 167.6H303.365V173H296.453Z" fill="black"/>
<path d="M142.156 218L141.235 218.391L141.494 219H142.156V218ZM133.948 198.704L134.868 198.313L133.971 196.205L133.035 198.295L133.948 198.704ZM125.308 218V219H125.955L126.22 218.409L125.308 218ZM118.54 218L117.634 217.575L116.965 219H118.54V218ZM130.78 191.936L131.685 192.361L131.882 191.941L131.689 191.519L130.78 191.936ZM119.62 167.6V166.6H118.061L118.711 168.017L119.62 167.6ZM126.46 167.6L127.376 167.201L127.115 166.6H126.46V167.6ZM134.02 184.952L133.103 185.351L134.007 187.426L134.932 185.361L134.02 184.952ZM141.796 167.6V166.6H141.148L140.883 167.191L141.796 167.6ZM148.492 167.6L149.397 168.024L150.065 166.6H148.492V167.6ZM137.116 191.864L136.21 191.439L136.012 191.861L136.208 192.284L137.116 191.864ZM149.212 218V219H150.776L150.119 217.58L149.212 218ZM143.076 217.609L134.868 198.313L133.027 199.095L141.235 218.391L143.076 217.609ZM133.035 198.295L124.395 217.591L126.22 218.409L134.86 199.113L133.035 198.295ZM125.308 217H118.54V219H125.308V217ZM119.445 218.425L131.685 192.361L129.874 191.511L117.634 217.575L119.445 218.425ZM131.689 191.519L120.529 167.183L118.711 168.017L129.871 192.353L131.689 191.519ZM119.62 168.6H126.46V166.6H119.62V168.6ZM125.543 167.999L133.103 185.351L134.936 184.553L127.376 167.201L125.543 167.999ZM134.932 185.361L142.708 168.009L140.883 167.191L133.107 184.543L134.932 185.361ZM141.796 168.6H148.492V166.6H141.796V168.6ZM147.586 167.175L136.21 191.439L138.021 192.289L149.397 168.024L147.586 167.175ZM136.208 192.284L148.304 218.42L150.119 217.58L138.023 191.444L136.208 192.284ZM149.212 217H142.156V219H149.212V217ZM175.947 217.424L175.477 218.306L175.488 218.313L175.5 218.318L175.947 217.424ZM174.075 215.84L174.861 215.222L174.065 214.209L173.282 215.232L174.075 215.84ZM156.723 215.84L156.049 216.579L156.061 216.589L156.072 216.599L156.723 215.84ZM172.275 195.68V196.68H173.275V195.68H172.275ZM170.907 188.624L171.574 187.879L170.907 188.624ZM157.155 187.4H156.155V188.4H157.155V187.4ZM157.155 182V181H156.155V182H157.155ZM175.371 184.736L174.691 185.469L174.7 185.478L175.371 184.736ZM179.187 212.456L178.599 213.265L178.64 213.294L178.683 213.32L179.187 212.456ZM181.995 212.96H182.995V211.96H181.995V212.96ZM181.995 218V219H182.995V218H181.995ZM171.699 211.592L170.831 211.096V211.096L171.699 211.592ZM172.275 201.08H173.275V200.08H172.275V201.08ZM161.619 202.304L160.912 201.597L161.619 202.304ZM161.259 211.736L160.552 212.443H160.552L161.259 211.736ZM178.035 217C177.614 217 177.073 216.869 176.394 216.53L175.5 218.318C176.357 218.747 177.209 219 178.035 219V217ZM176.418 216.542C175.826 216.226 175.308 215.79 174.861 215.222L173.289 216.458C173.898 217.234 174.628 217.854 175.477 218.306L176.418 216.542ZM173.282 215.232C172.368 216.423 171.198 217 169.683 217V219C171.816 219 173.574 218.137 174.869 216.448L173.282 215.232ZM169.683 217H164.715V219H169.683V217ZM164.715 217C161.162 217 158.787 216.292 157.374 215.081L156.072 216.599C158.019 218.268 160.972 219 164.715 219V217ZM157.397 215.101C156.07 213.891 155.275 211.717 155.275 208.28H153.275C153.275 211.947 154.112 214.813 156.049 216.579L157.397 215.101ZM155.275 208.28V206.84H153.275V208.28H155.275ZM155.275 206.84C155.275 203.26 156.119 200.761 157.631 199.156C159.132 197.562 161.453 196.68 164.787 196.68V194.68C161.113 194.68 158.178 195.658 156.175 197.784C154.183 199.899 153.275 202.98 153.275 206.84H155.275ZM164.787 196.68H172.275V194.68H164.787V196.68ZM173.275 195.68V192.08H171.275V195.68H173.275ZM173.275 192.08C173.275 190.374 172.743 188.925 171.574 187.879L170.24 189.369C170.895 189.955 171.275 190.81 171.275 192.08H173.275ZM171.574 187.879C170.411 186.838 168.788 186.4 166.875 186.4V188.4C168.514 188.4 169.579 188.778 170.24 189.369L171.574 187.879ZM166.875 186.4H157.155V188.4H166.875V186.4ZM158.155 187.4V182H156.155V187.4H158.155ZM157.155 183H166.155V181H157.155V183ZM166.155 183C170.214 183 172.988 183.891 174.691 185.469L176.051 184.003C173.818 181.933 170.448 181 166.155 181V183ZM174.7 185.478C176.423 187.036 177.395 189.633 177.395 193.52H179.395C179.395 189.343 178.352 186.084 176.042 183.994L174.7 185.478ZM177.395 193.52V210.8H179.395V193.52H177.395ZM177.395 210.8C177.395 211.802 177.783 212.671 178.599 213.265L179.775 211.647C179.535 211.473 179.395 211.238 179.395 210.8H177.395ZM178.683 213.32C179.499 213.795 180.66 213.96 181.995 213.96V211.96C180.738 211.96 180.028 211.789 179.691 211.592L178.683 213.32ZM180.995 212.96V218H182.995V212.96H180.995ZM181.995 217H178.035V219H181.995V217ZM168.963 213.6C170.457 213.6 171.893 213.268 172.567 212.088L170.831 211.096C170.737 211.26 170.349 211.6 168.963 211.6V213.6ZM172.567 212.088C173.064 211.22 173.275 210.169 173.275 209H171.275C171.275 209.943 171.103 210.62 170.831 211.096L172.567 212.088ZM173.275 209V201.08H171.275V209H173.275ZM172.275 200.08H164.715V202.08H172.275V200.08ZM164.715 200.08C163.226 200.08 161.932 200.577 160.912 201.597L162.326 203.011C162.939 202.399 163.709 202.08 164.715 202.08V200.08ZM160.912 201.597C159.892 202.617 159.395 203.911 159.395 205.4H161.395C161.395 204.393 161.714 203.623 162.326 203.011L160.912 201.597ZM159.395 205.4V209H161.395V205.4H159.395ZM159.395 209C159.395 210.375 159.709 211.6 160.552 212.443L161.966 211.029C161.657 210.72 161.395 210.121 161.395 209H159.395ZM160.552 212.443C161.395 213.286 162.62 213.6 163.995 213.6V211.6C162.874 211.6 162.276 211.338 161.966 211.029L160.552 212.443ZM163.995 213.6H168.963V211.6H163.995V213.6ZM190.615 182V181H189.615V182H190.615ZM196.375 182H197.375V181H196.375V182ZM196.375 183.728H195.375V185.767L196.988 184.519L196.375 183.728ZM212.647 184.736L211.95 185.452L211.959 185.461L212.647 184.736ZM215.527 218V219H216.527V218H215.527ZM209.407 218H208.407V219H209.407V218ZM208.111 188.696L207.384 189.383L207.404 189.403L207.425 189.423L208.111 188.696ZM197.887 188.696L198.616 189.381L198.625 189.371L198.635 189.36L197.887 188.696ZM196.735 218V219H197.735V218H196.735ZM190.615 218H189.615V219H190.615V218ZM190.615 183H196.375V181H190.615V183ZM195.375 182V183.728H197.375V182H195.375ZM196.988 184.519C198.26 183.533 199.949 183 202.135 183V181C199.618 181 197.466 181.619 195.763 182.937L196.988 184.519ZM202.135 183H204.007V181H202.135V183ZM204.007 183C207.76 183 210.338 183.882 211.95 185.452L213.345 184.02C211.213 181.942 208.031 181 204.007 181V183ZM211.959 185.461C213.596 187.017 214.527 189.62 214.527 193.52H216.527C216.527 189.356 215.538 186.103 213.336 184.011L211.959 185.461ZM214.527 193.52V218H216.527V193.52H214.527ZM215.527 217H209.407V219H215.527V217ZM210.407 218V192.08H208.407V218H210.407ZM210.407 192.08C210.407 190.428 209.904 189.013 208.798 187.969L207.425 189.423C208.047 190.011 208.407 190.852 208.407 192.08H210.407ZM208.838 188.009C207.794 186.904 206.38 186.4 204.727 186.4V188.4C205.955 188.4 206.796 188.76 207.384 189.383L208.838 188.009ZM204.727 186.4H201.415V188.4H204.727V186.4ZM201.415 186.4C199.656 186.4 198.16 186.884 197.14 188.032L198.635 189.36C199.15 188.78 200.007 188.4 201.415 188.4V186.4ZM197.159 188.011C196.248 188.979 195.735 190.103 195.735 191.36H197.735C197.735 190.697 197.991 190.045 198.616 189.381L197.159 188.011ZM195.735 191.36V218H197.735V191.36H195.735ZM196.735 217H190.615V219H196.735V217ZM191.615 218V182H189.615V218H191.615ZM245.478 216.344H246.478V214.428L244.906 215.524L245.478 216.344ZM228.918 215.336L228.238 216.069L228.248 216.078L228.918 215.336ZM228.918 184.736L228.247 183.994L228.238 184.003L228.918 184.736ZM245.118 182V183H246.118V182H245.118ZM245.118 167.6V166.6H244.118V167.6H245.118ZM251.238 167.6H252.238V166.6H251.238V167.6ZM251.238 218V219H252.238V218H251.238ZM245.478 218H244.478V219H245.478V218ZM243.966 211.376L244.694 212.061L244.704 212.051L244.713 212.04L243.966 211.376ZM245.118 187.4H246.118V186.4H245.118V187.4ZM233.454 188.624L234.121 189.369L233.454 188.624ZM233.454 211.376L234.121 210.631V210.631L233.454 211.376ZM244.906 215.524C243.517 216.492 241.805 217 239.718 217V219C242.143 219 244.271 218.404 246.05 217.164L244.906 215.524ZM239.718 217H238.206V219H239.718V217ZM238.206 217C234.09 217 231.29 216.129 229.588 214.594L228.248 216.078C230.482 218.095 233.874 219 238.206 219V217ZM229.598 214.603C227.92 213.047 226.966 210.426 226.966 206.48H224.966C224.966 210.694 225.98 213.977 228.238 216.069L229.598 214.603ZM226.966 206.48V193.52H224.966V206.48H226.966ZM226.966 193.52C226.966 189.627 227.918 187.026 229.598 185.469L228.238 184.003C225.982 186.094 224.966 189.349 224.966 193.52H226.966ZM229.589 185.478C231.344 183.889 234.15 183 238.206 183V181C233.91 181 230.524 181.935 228.247 183.994L229.589 185.478ZM238.206 183H245.118V181H238.206V183ZM246.118 182V167.6H244.118V182H246.118ZM245.118 168.6H251.238V166.6H245.118V168.6ZM250.238 167.6V218H252.238V167.6H250.238ZM251.238 217H245.478V219H251.238V217ZM246.478 218V216.344H244.478V218H246.478ZM240.438 213.6C242.181 213.6 243.67 213.15 244.694 212.061L243.238 210.691C242.726 211.234 241.862 211.6 240.438 211.6V213.6ZM244.713 212.04C245.609 211.033 246.118 209.893 246.118 208.64H244.118C244.118 209.307 243.859 209.991 243.218 210.712L244.713 212.04ZM246.118 208.64V187.4H244.118V208.64H246.118ZM245.118 186.4H237.486V188.4H245.118V186.4ZM237.486 186.4C235.573 186.4 233.95 186.838 232.787 187.879L234.121 189.369C234.781 188.778 235.846 188.4 237.486 188.4V186.4ZM232.787 187.879C231.618 188.925 231.086 190.374 231.086 192.08H233.086C233.086 190.81 233.466 189.955 234.121 189.369L232.787 187.879ZM231.086 192.08V207.92H233.086V192.08H231.086ZM231.086 207.92C231.086 209.626 231.618 211.075 232.787 212.121L234.121 210.631C233.466 210.045 233.086 209.19 233.086 207.92H231.086ZM232.787 212.121C233.95 213.162 235.573 213.6 237.486 213.6V211.6C235.846 211.6 234.781 211.222 234.121 210.631L232.787 212.121ZM237.486 213.6H240.438V211.6H237.486V213.6ZM262.756 182V181H261.756V182H262.756ZM268.516 182H269.516V181H268.516V182ZM268.516 183.944H267.516V186.054L269.149 184.718L268.516 183.944ZM279.532 182H280.532V181H279.532V182ZM279.532 187.76V188.76H280.532V187.76H279.532ZM270.028 189.344L269.219 188.756L270.028 189.344ZM268.876 218V219H269.876V218H268.876ZM262.756 218H261.756V219H262.756V218ZM262.756 183H268.516V181H262.756V183ZM267.516 182V183.944H269.516V182H267.516ZM269.149 184.718C270.536 183.583 272.226 183 274.276 183V181C271.814 181 269.664 181.713 267.883 183.17L269.149 184.718ZM274.276 183H279.532V181H274.276V183ZM278.532 182V187.76H280.532V182H278.532ZM279.532 186.76H273.556V188.76H279.532V186.76ZM273.556 186.76C271.729 186.76 270.217 187.385 269.219 188.756L270.837 189.932C271.376 189.191 272.215 188.76 273.556 188.76V186.76ZM269.219 188.756C268.364 189.932 267.876 191.166 267.876 192.44H269.876C269.876 191.698 270.156 190.868 270.837 189.932L269.219 188.756ZM267.876 192.44V218H269.876V192.44H267.876ZM268.876 217H262.756V219H268.876V217ZM263.756 218V182H261.756V218H263.756ZM294.581 173.648L295.245 174.395L295.25 174.391L294.581 173.648ZM293.933 182H292.933V183H293.933V182ZM302.645 182H303.645V181H302.645V182ZM302.645 187.4V188.4H303.645V187.4H302.645ZM293.933 187.4V186.4H292.933V187.4H293.933ZM293.933 218V219H294.933V218H293.933ZM287.813 218H286.813V219H287.813V218ZM287.813 187.4H288.813V186.4H287.813V187.4ZM283.133 187.4H282.133V188.4H283.133V187.4ZM283.133 182V181H282.133V182H283.133ZM287.813 182V183H288.813V182H287.813ZM289.901 169.76L290.608 170.467L290.614 170.461L290.62 170.455L289.901 169.76ZM303.365 167.6H304.365V166.6H303.365V167.6ZM303.365 173V174H304.365V173H303.365ZM296.453 172C295.487 172 294.609 172.277 293.912 172.905L295.25 174.391C295.512 174.155 295.882 174 296.453 174V172ZM293.916 172.901C293.252 173.491 292.933 174.276 292.933 175.16H294.933C294.933 174.796 295.045 174.573 295.245 174.395L293.916 172.901ZM292.933 175.16V182H294.933V175.16H292.933ZM293.933 183H302.645V181H293.933V183ZM301.645 182V187.4H303.645V182H301.645ZM302.645 186.4H293.933V188.4H302.645V186.4ZM292.933 187.4V218H294.933V187.4H292.933ZM293.933 217H287.813V219H293.933V217ZM288.813 218V187.4H286.813V218H288.813ZM287.813 186.4H283.133V188.4H287.813V186.4ZM284.133 187.4V182H282.133V187.4H284.133ZM283.133 183H287.813V181H283.133V183ZM288.813 182V175.52H286.813V182H288.813ZM288.813 175.52C288.813 173.269 289.447 171.628 290.608 170.467L289.194 169.053C287.571 170.676 286.813 172.875 286.813 175.52H288.813ZM290.62 170.455C291.803 169.231 293.333 168.6 295.301 168.6V166.6C292.852 166.6 290.782 167.409 289.182 169.065L290.62 170.455ZM295.301 168.6H303.365V166.6H295.301V168.6ZM302.365 167.6V173H304.365V167.6H302.365ZM303.365 172H296.453V174H303.365V172Z" fill="black"/>
<path d="M191.652 270.624C191.652 274.752 190.692 277.68 188.772 279.408C186.9 281.136 183.78 282 179.412 282H165.3V231.6H178.548C182.868 231.6 186.132 232.488 188.34 234.264C190.548 235.992 191.652 238.848 191.652 242.832V270.624ZM185.388 242.184C185.388 240.6 184.908 239.352 183.948 238.44C182.988 237.48 181.716 237 180.132 237H171.564V276.6H180.06C181.884 276.6 183.228 276.192 184.092 275.376C184.956 274.512 185.388 273.168 185.388 271.344V242.184ZM214.358 282C210.134 282 207.038 281.112 205.07 279.336C203.102 277.512 202.118 274.56 202.118 270.48V257.52C202.118 253.392 203.006 250.44 204.782 248.664C206.558 246.888 209.51 246 213.638 246H215.582C218.99 246 221.558 246.96 223.286 248.88C225.062 250.752 225.95 253.512 225.95 257.16V266.52H208.238V271.92C208.238 273.408 208.694 274.56 209.606 275.376C210.518 276.192 211.862 276.6 213.638 276.6H223.646V282H214.358ZM219.974 261.12V255.72C219.974 254.472 219.566 253.44 218.75 252.624C217.934 251.808 216.902 251.4 215.654 251.4H212.918C211.19 251.4 209.966 251.808 209.246 252.624C208.574 253.392 208.238 254.544 208.238 256.08V261.12H219.974ZM250.659 282H241.803L232.083 246H238.635L246.411 276.888L253.971 246H260.307L250.659 282Z" fill="black"/>
<path d="M188.772 279.408L188.103 278.665L188.093 278.673L188.772 279.408ZM165.3 282H164.3V283H165.3V282ZM165.3 231.6V230.6H164.3V231.6H165.3ZM188.34 234.264L187.713 235.043L187.723 235.052L188.34 234.264ZM183.948 238.44L183.241 239.147L183.25 239.156L183.259 239.165L183.948 238.44ZM171.564 237V236H170.564V237H171.564ZM171.564 276.6H170.564V277.6H171.564V276.6ZM184.092 275.376L184.778 276.103L184.789 276.093L184.799 276.083L184.092 275.376ZM190.652 270.624C190.652 274.634 189.714 277.215 188.103 278.665L189.441 280.151C191.669 278.146 192.652 274.87 192.652 270.624H190.652ZM188.093 278.673C186.5 280.144 183.694 281 179.412 281V283C183.865 283 187.3 282.128 189.45 280.143L188.093 278.673ZM179.412 281H165.3V283H179.412V281ZM166.3 282V231.6H164.3V282H166.3ZM165.3 232.6H178.548V230.6H165.3V232.6ZM178.548 232.6C182.754 232.6 185.755 233.468 187.713 235.043L188.966 233.485C186.509 231.508 182.982 230.6 178.548 230.6V232.6ZM187.723 235.052C189.599 236.52 190.652 239.019 190.652 242.832H192.652C192.652 238.677 191.496 235.464 188.956 233.476L187.723 235.052ZM190.652 242.832V270.624H192.652V242.832H190.652ZM186.388 242.184C186.388 240.384 185.834 238.852 184.636 237.715L183.259 239.165C183.982 239.852 184.388 240.816 184.388 242.184H186.388ZM184.655 237.733C183.476 236.554 181.933 236 180.132 236V238C181.498 238 182.499 238.406 183.241 239.147L184.655 237.733ZM180.132 236H171.564V238H180.132V236ZM170.564 237V276.6H172.564V237H170.564ZM171.564 277.6H180.06V275.6H171.564V277.6ZM180.06 277.6C182.006 277.6 183.651 277.168 184.778 276.103L183.405 274.649C182.805 275.216 181.761 275.6 180.06 275.6V277.6ZM184.799 276.083C185.925 274.957 186.388 273.304 186.388 271.344H184.388C184.388 273.032 183.986 274.067 183.385 274.669L184.799 276.083ZM186.388 271.344V242.184H184.388V271.344H186.388ZM205.07 279.336L204.39 280.069L204.4 280.078L205.07 279.336ZM204.782 248.664L204.075 247.957L204.782 248.664ZM223.286 248.88L222.543 249.549L222.552 249.559L222.561 249.568L223.286 248.88ZM225.95 266.52V267.52H226.95V266.52H225.95ZM208.238 266.52V265.52H207.238V266.52H208.238ZM209.606 275.376L210.273 274.631L210.273 274.631L209.606 275.376ZM223.646 276.6H224.646V275.6H223.646V276.6ZM223.646 282V283H224.646V282H223.646ZM219.974 261.12V262.12H220.974V261.12H219.974ZM218.75 252.624L219.457 251.917V251.917L218.75 252.624ZM209.246 252.624L208.496 251.962L208.494 251.965L209.246 252.624ZM208.238 261.12H207.238V262.12H208.238V261.12ZM214.358 281C210.242 281 207.442 280.129 205.74 278.594L204.4 280.078C206.634 282.095 210.026 283 214.358 283V281ZM205.75 278.603C204.072 277.047 203.118 274.426 203.118 270.48H201.118C201.118 274.694 202.132 277.977 204.39 280.069L205.75 278.603ZM203.118 270.48V257.52H201.118V270.48H203.118ZM203.118 257.52C203.118 253.495 203.991 250.87 205.489 249.371L204.075 247.957C202.022 250.01 201.118 253.289 201.118 257.52H203.118ZM205.489 249.371C206.988 247.873 209.613 247 213.638 247V245C209.407 245 206.129 245.903 204.075 247.957L205.489 249.371ZM213.638 247H215.582V245H213.638V247ZM215.582 247C218.802 247 221.06 247.902 222.543 249.549L224.029 248.211C222.056 246.018 219.178 245 215.582 245V247ZM222.561 249.568C224.099 251.19 224.95 253.662 224.95 257.16H226.95C226.95 253.362 226.025 250.314 224.012 248.192L222.561 249.568ZM224.95 257.16V266.52H226.95V257.16H224.95ZM225.95 265.52H208.238V267.52H225.95V265.52ZM207.238 266.52V271.92H209.238V266.52H207.238ZM207.238 271.92C207.238 273.626 207.77 275.075 208.939 276.121L210.273 274.631C209.618 274.045 209.238 273.19 209.238 271.92H207.238ZM208.939 276.121C210.102 277.162 211.725 277.6 213.638 277.6V275.6C211.999 275.6 210.934 275.222 210.273 274.631L208.939 276.121ZM213.638 277.6H223.646V275.6H213.638V277.6ZM222.646 276.6V282H224.646V276.6H222.646ZM223.646 281H214.358V283H223.646V281ZM220.974 261.12V255.72H218.974V261.12H220.974ZM220.974 255.72C220.974 254.231 220.477 252.937 219.457 251.917L218.043 253.331C218.655 253.943 218.974 254.713 218.974 255.72H220.974ZM219.457 251.917C218.437 250.897 217.143 250.4 215.654 250.4V252.4C216.661 252.4 217.431 252.719 218.043 253.331L219.457 251.917ZM215.654 250.4H212.918V252.4H215.654V250.4ZM212.918 250.4C211.069 250.4 209.494 250.832 208.496 251.962L209.996 253.286C210.439 252.784 211.311 252.4 212.918 252.4V250.4ZM208.494 251.965C207.598 252.989 207.238 254.42 207.238 256.08H209.238C209.238 254.668 209.55 253.795 209.999 253.283L208.494 251.965ZM207.238 256.08V261.12H209.238V256.08H207.238ZM208.238 262.12H219.974V260.12H208.238V262.12ZM250.659 282V283H251.426L251.624 282.259L250.659 282ZM241.802 282L240.837 282.261L241.037 283H241.802V282ZM232.082 246V245H230.777L231.117 246.261L232.082 246ZM238.634 246L239.604 245.756L239.414 245H238.634V246ZM246.41 276.888L245.441 277.132L247.382 277.126L246.41 276.888ZM253.971 246V245H253.186L252.999 245.762L253.971 246ZM260.307 246L261.272 246.259L261.61 245H260.307V246ZM250.659 281H241.802V283H250.659V281ZM242.768 281.739L233.048 245.739L231.117 246.261L240.837 282.261L242.768 281.739ZM232.082 247H238.634V245H232.082V247ZM237.665 246.244L245.441 277.132L247.38 276.644L239.604 245.756L237.665 246.244ZM247.382 277.126L254.942 246.238L252.999 245.762L245.439 276.65L247.382 277.126ZM253.971 247H260.307V245H253.971V247ZM259.341 245.741L249.693 281.741L251.624 282.259L261.272 246.259L259.341 245.741Z" fill="black"/>
</svg>
